
    <svg xmlns="http://www.w3.org/2000/svg" width="900" height="900" viewBox="0 0 900 900">
      <path d="M230 702L230 702Q203 702 178 702Q153 701 139 701L139 701Q134 701 134 696L134 696Q134 691 138 679Q142 667 153 642L153 642Q180 583 206 519Q232 454 252 393L252 393Q253 390 254 387Q255 384 255 383L255 383Q255 377 251 375Q247 374 240 374L240 374Q233 374 225 374Q217 375 211 375L211 375Q210 375 210 373L210 373Q210 369 214 369L214 369Q223 370 240 370Q256 370 268 370L268 370Q281 370 295 370Q308 370 320 369L320 369Q321 369 320 371Q319 373 318 373L318 373Q313 373 308 373Q303 373 298 374L298 374Q282 376 278 383L278 383Q274 388 265 406Q256 425 246 447Q236 470 228 490Q219 509 215 518L215 518Q201 552 187 587Q173 621 162 655L162 655Q160 662 159 667Q158 671 158 676L158 676Q158 684 164 688Q170 693 186 694L186 694Q193 694 201 695Q209 695 217 695L217 695Q226 695 233 695Q239 694 242 694L242 694Q261 693 279 689Q296 686 305 680L305 680Q308 678 315 666Q322 654 325 638L325 638Q325 637 327 637Q330 638 330 640L330 640Q326 650 322 663Q318 677 313 688Q308 698 305 699L305 699Q295 701 274 701Q253 702 230 702Z" fill="#FFFFFF"/>
    </svg>
  