
    <svg xmlns="http://www.w3.org/2000/svg" width="1400" height="900" viewBox="0 0 1400 900">
      <path d="M233 479L193 370L152 479L233 479ZM92 560L176 341L209 341L293 560L262 560L242 504L143 504L124 560L92 560Z" fill="#FFFFFF"/>
      <path d="M355 662L355 662Q328 662 303 662Q278 661 264 661L264 661Q259 661 259 656L259 656Q259 651 263 639Q267 627 278 602L278 602Q305 543 331 479Q357 414 377 353L377 353Q378 350 379 347Q380 344 380 343L380 343Q380 337 376 335Q372 334 365 334L365 334Q358 334 350 334Q342 335 336 335L336 335Q335 335 335 333L335 333Q335 329 339 329L339 329Q348 330 365 330Q381 330 393 330L393 330Q406 330 420 330Q433 330 445 329L445 329Q446 329 445 331Q444 333 443 333L443 333Q438 333 433 333Q428 333 423 334L423 334Q407 336 403 343L403 343Q399 348 390 366Q381 385 371 407Q361 430 353 450Q344 469 340 478L340 478Q326 512 312 547Q298 581 287 615L287 615Q285 622 284 627Q283 631 283 636L283 636Q283 644 289 648Q295 653 311 654L311 654Q318 654 326 655Q334 655 342 655L342 655Q351 655 358 655Q364 654 367 654L367 654Q386 653 404 649Q421 646 430 640L430 640Q433 638 440 626Q447 614 450 598L450 598Q450 597 452 597Q455 598 455 600L455 600Q451 610 447 623Q443 637 438 648Q433 658 430 659L430 659Q420 661 399 661Q378 662 355 662Z" fill="#FFFFFF"/>
      <path d="M681 348L681 348L681 377Q664 369 649 365Q634 361 620 361L620 361Q596 361 583 371Q570 380 570 397L570 397Q570 412 578 419Q587 427 611 431L611 431L629 435Q662 441 678 457Q694 473 694 500L694 500Q694 531 672 548Q651 564 610 564L610 564Q594 564 577 561Q559 557 541 550L541 550L541 520Q559 530 576 535Q593 540 610 540L610 540Q635 540 649 530Q663 520 663 502L663 502Q663 486 653 477Q643 468 620 463L620 463L602 460Q569 453 555 439Q540 425 540 400L540 400Q540 371 560 354Q581 337 617 337L617 337Q632 337 648 340Q664 343 681 348ZM740 560L740 341L769 341L769 431L877 431L877 341L907 341L907 560L877 560L877 456L769 456L769 560L740 560Z" fill="#FFFFFF"/>
      <path d="M975 560L975 543L989 543L989 560L975 560ZM1065 522L1052 522Q1037 522 1031 525Q1025 528 1025 537L1025 537Q1025 544 1030 548Q1034 551 1042 551L1042 551Q1052 551 1059 544Q1065 537 1065 524L1065 524L1065 522ZM1078 516L1078 516L1078 560L1065 560L1065 548Q1061 555 1054 559Q1048 562 1039 562L1039 562Q1027 562 1020 555Q1013 549 1013 538L1013 538Q1013 525 1022 518Q1030 512 1047 512L1047 512L1065 512L1065 510Q1065 502 1059 497Q1054 492 1043 492L1043 492Q1037 492 1030 494Q1024 495 1019 499L1019 499L1019 487Q1025 484 1032 483Q1038 482 1045 482L1045 482Q1061 482 1069 490Q1078 499 1078 516ZM1103 560L1103 483L1116 483L1116 560L1103 560ZM1103 470L1103 454L1116 454L1116 470L1103 470Z" fill="#FFFFFF"/>
    </svg>
  