
    <svg xmlns="http://www.w3.org/2000/svg" width="1012" height="275" viewBox="98.34375 313.34375 1011.720703125 274.904296875">
      <path d="M263 479L223 370L182 479L263 479ZM122 560L206 341L239 341L323 560L292 560L272 504L173 504L154 560L122 560Z" fill="#FFFFFF"/>
      <path d="M355 662L355 662Q328 662 303 662Q278 661 264 661L264 661Q259 661 259 656L259 656Q259 651 263 639Q267 627 278 602L278 602Q305 543 331 479Q357 414 377 353L377 353Q378 350 379 347Q380 344 380 343L380 343Q380 337 376 335Q372 334 365 334L365 334Q358 334 350 334Q342 335 336 335L336 335Q335 335 335 333L335 333Q335 329 339 329L339 329Q348 330 365 330Q381 330 393 330L393 330Q406 330 420 330Q433 330 445 329L445 329Q446 329 445 331Q444 333 443 333L443 333Q438 333 433 333Q428 333 423 334L423 334Q407 336 403 343L403 343Q399 348 390 366Q381 385 371 407Q361 430 353 450Q344 469 340 478L340 478Q326 512 312 547Q298 581 287 615L287 615Q285 622 284 627Q283 631 283 636L283 636Q283 644 289 648Q295 653 311 654L311 654Q318 654 326 655Q334 655 342 655L342 655Q351 655 358 655Q364 654 367 654L367 654Q386 653 404 649Q421 646 430 640L430 640Q433 638 440 626Q447 614 450 598L450 598Q450 597 452 597Q455 598 455 600L455 600Q451 610 447 623Q443 637 438 648Q433 658 430 659L430 659Q420 661 399 661Q378 662 355 662Z" fill="#FFFFFF" transform="translate(196 124) scale(0.66)"/>
      <path d="M681 348L681 348L681 377Q664 369 649 365Q634 361 620 361L620 361Q596 361 583 371Q570 380 570 397L570 397Q570 412 578 419Q587 427 611 431L611 431L629 435Q662 441 678 457Q694 473 694 500L694 500Q694 531 672 548Q651 564 610 564L610 564Q594 564 577 561Q559 557 541 550L541 550L541 520Q559 530 576 535Q593 540 610 540L610 540Q635 540 649 530Q663 520 663 502L663 502Q663 486 653 477Q643 468 620 463L620 463L602 460Q569 453 555 439Q540 425 540 400L540 400Q540 371 560 354Q581 337 617 337L617 337Q632 337 648 340Q664 343 681 348ZM740 560L740 341L769 341L769 431L877 431L877 341L907 341L907 560L877 560L877 456L769 456L769 560L740 560Z" fill="#FFFFFF"/>
      <path d="M945 560L945 543L959 543L959 560L945 560ZM1035 522L1022 522Q1007 522 1001 525Q995 528 995 537L995 537Q995 544 1000 548Q1004 551 1012 551L1012 551Q1022 551 1029 544Q1035 537 1035 524L1035 524L1035 522ZM1048 516L1048 516L1048 560L1035 560L1035 548Q1031 555 1024 559Q1018 562 1009 562L1009 562Q997 562 990 555Q983 549 983 538L983 538Q983 525 992 518Q1000 512 1017 512L1017 512L1035 512L1035 510Q1035 502 1029 497Q1024 492 1013 492L1013 492Q1007 492 1000 494Q994 495 989 499L989 499L989 487Q995 484 1002 483Q1008 482 1015 482L1015 482Q1031 482 1039 490Q1048 499 1048 516ZM1073 560L1073 483L1086 483L1086 560L1073 560ZM1073 470L1073 454L1086 454L1086 470L1073 470Z" fill="#FFFFFF"/>
    </svg>
  