
    <svg xmlns="http://www.w3.org/2000/svg" width="40" height="60" viewBox="343.1116 317.08720000000005 176.97239992904662 267.7404">
      <path d="M355 662L355 662Q328 662 303 662Q278 661 264 661L264 661Q259 661 259 656L259 656Q259 651 263 639Q267 627 278 602L278 602Q305 543 331 479Q357 414 377 353L377 353Q378 350 379 347Q380 344 380 343L380 343Q380 337 376 335Q372 334 365 334L365 334Q358 334 350 334Q342 335 336 335L336 335Q335 335 335 333L335 333Q335 329 339 329L339 329Q348 330 365 330Q381 330 393 330L393 330Q406 330 420 330Q433 330 445 329L445 329Q446 329 445 331Q444 333 443 333L443 333Q438 333 433 333Q428 333 423 334L423 334Q407 336 403 343L403 343Q399 348 390 366Q381 385 371 407Q361 430 353 450Q344 469 340 478L340 478Q326 512 312 547Q298 581 287 615L287 615Q285 622 284 627Q283 631 283 636L283 636Q283 644 289 648Q295 653 311 654L311 654Q318 654 326 655Q334 655 342 655L342 655Q351 655 358 655Q364 654 367 654L367 654Q386 653 404 649Q421 646 430 640L430 640Q433 638 440 626Q447 614 450 598L450 598Q450 597 452 597Q455 598 455 600L455 600Q451 610 447 623Q443 637 438 648Q433 658 430 659L430 659Q420 661 399 661Q378 662 355 662Z" fill="#FFFFFF" stroke="#FFFFFF" stroke-width="18" stroke-linejoin="round" stroke-linecap="round" transform="translate(196 124) scale(0.66)"/>
    </svg>
  